<?xml version="1.0"?>
<svg xmlns="http://www.w3.org/2000/svg" viewBox="0 0 512 512" width="512px" height="512px"><g><g id="Outline"><path d="M98.147,372.8l6.138,14.777a65.794,65.794,0,0,1,13.45-3.962l-2.861-15.742A81.91,81.91,0,0,0,98.147,372.8Z" data-original="#000000" class="active-path" data-old_color="#000000" fill="#53482F"/><path d="M56.122,412.513l14.4,6.974a65.626,65.626,0,0,1,21.993-25.533l-9.03-13.209A81.646,81.646,0,0,0,56.122,412.513Z" data-original="#000000" class="active-path" data-old_color="#000000" fill="#53482F"/><path d="M496,408a55.9,55.9,0,0,0-14.262-37.335l-11.922,10.67A39.906,39.906,0,0,1,479.2,400H424a8,8,0,0,0-6.656,3.562L387.719,448H368V424a56.064,56.064,0,0,1,56-56h16a39.8,39.8,0,0,1,22.112,6.662l8.86-13.324A55.661,55.661,0,0,0,448,352.572V328a8,8,0,0,0-8-8,32.036,32.036,0,0,1-32-32V256h24a8,8,0,0,0,8-8V192a8,8,0,0,0-8-8H417.89a36.961,36.961,0,0,0-9.89,1.363V176a8,8,0,0,0-1.753-5L380.072,138.28a28,28,0,1,0-11.789,10.876L392,178.806V188.9l-35.17-11.723A21.563,21.563,0,0,0,349.667,176H283.68L245.7,131.689A23.985,23.985,0,0,0,256,112v-3.056l11.578-5.789a8,8,0,0,0,3.078-11.593l-13.14-19.71A8,8,0,0,0,264,64a48.055,48.055,0,0,0-48-48c-15.065,0-29.015,4.327-39.39,15.792a48.089,48.089,0,0,0-12.173,36.984l1.712,17.112A28.913,28.913,0,0,0,176,104.938V256a31.793,31.793,0,0,0,4.305,16H168a23.885,23.885,0,0,0-8,1.376V168a24.027,24.027,0,0,0-24-24H40a24.027,24.027,0,0,0-24,24v40H32V192H144v80H32V224H16v65.323a15.991,15.991,0,0,0,13.138,15.742L104,318.677V337.45A113.28,113.28,0,0,0,84.214,344H40a8,8,0,0,0-8,8v37.972A113.628,113.628,0,0,0,16,448a8,8,0,0,0,8,8H60.671a64,64,0,0,0,118.658,0H313.84a40.063,40.063,0,0,0,29.6-13.09l8.56-9.419V456a8,8,0,0,0,8,8h16.576A64,64,0,0,0,496,432a63.72,63.72,0,0,0-2.606-18.1A7.97,7.97,0,0,0,496,408ZM344,124a12,12,0,1,1,12,12A12.013,12.013,0,0,1,344,124ZM229.55,408A29.584,29.584,0,0,1,200,378.449c0-7.854,1.986-15.2,7.22-21.243a29.634,29.634,0,0,1,18.147-9.9A35.674,35.674,0,0,0,256,312a7.975,7.975,0,0,0-2.345-5.659A23.961,23.961,0,0,0,254.624,288h21.728l-35.106,91.274A18.58,18.58,0,0,0,240,386.167V408ZM256,392h40a8,8,0,0,1,4.437,14.652A16.023,16.023,0,0,1,294.06,408H256Zm62.082-1.4a24.071,24.071,0,0,0-18.226-14.29l33.131-79.763A46.653,46.653,0,0,0,289.9,232H256V219.314l2.343,2.343A8,8,0,0,0,264,224h81.376A23.992,23.992,0,0,0,368,256h.022A39.788,39.788,0,0,0,360,280v62.06a16.108,16.108,0,0,1-4.687,11.313ZM368,240a8,8,0,1,1,8-8A8.009,8.009,0,0,1,368,240Zm56-40v40H408V202.491A21.035,21.035,0,0,1,417.89,200Zm-32,32a23.992,23.992,0,0,0-32-22.624V195.1l32,10.666ZM280,192h64v16H267.314l-45.657-45.657-11.314,11.314L240,203.313V232H192V136h36.32l45.606,53.207A8,8,0,0,0,280,192ZM188.473,42.528C195.786,34.447,205.491,32,216,32a32.058,32.058,0,0,1,30.988,24H216a8,8,0,0,0-8,8V83A13,13,0,0,1,182.07,84.3l-1.712-17.112A31.631,31.631,0,0,1,188.473,42.528ZM195,112a29.03,29.03,0,0,0,29-29V72h16a7.993,7.993,0,0,0,1.344,4.438L252.317,92.9l-7.9,3.948A8,8,0,0,0,240,104v8a8.009,8.009,0,0,1-8,8H192v-8.157A29.5,29.5,0,0,0,195,112Zm-3,144v-8h97.9a30.655,30.655,0,0,1,28.309,42.414L282.66,376H259.648l35.819-93.128A8,8,0,0,0,288,272H208A16.019,16.019,0,0,1,192,256Zm-24,32h64a8,8,0,0,1,0,16H168a8,8,0,0,1,0-16ZM32,176v-8a8.009,8.009,0,0,1,8-8h96a8.009,8.009,0,0,1,8,8v8Zm0,112H144v16H112.721L32,289.323Zm25.89,72A113.209,113.209,0,0,0,48,369.052V360ZM120,480a48.355,48.355,0,0,1-41.558-24H98.854a31.947,31.947,0,0,0,42.292,0h20.412A48.355,48.355,0,0,1,120,480Zm211.6-47.85A24.036,24.036,0,0,1,313.84,440H32.331a97.44,97.44,0,0,1,76.875-87.316A29.964,29.964,0,0,1,115.5,352H168V336H120V320H238.3a19.678,19.678,0,0,1-15.2,11.472,45.657,45.657,0,0,0-27.97,15.252C187.389,355.638,184,366.79,184,378.45A45.338,45.338,0,0,0,194.928,408H128v16H294.06a32.578,32.578,0,0,0,22.627-9.373l49.94-49.94A32.226,32.226,0,0,0,376,342.06V280a24.042,24.042,0,0,1,16-22.629V288a48.078,48.078,0,0,0,40,47.333V352c-4.967,0-10.049-.3-14.987.345A72.15,72.15,0,0,0,353.906,407.6ZM428.281,416h.406l9.656,9.657A9.012,9.012,0,0,1,440.97,432a8.97,8.97,0,0,1-15.313,6.343l-7.363-7.362ZM432,480a48.268,48.268,0,0,1-36.475-16.832,7.981,7.981,0,0,0,3.131-2.73l6.936-10.4A31.983,31.983,0,0,0,464,432a31.586,31.586,0,0,0-3.089-13.7c-.373-.787-.784-1.549-1.217-2.3h17.571A48.025,48.025,0,0,1,432,480Z" data-original="#000000" class="active-path" data-old_color="#000000" fill="#53482F"/><rect x="48" y="208" width="16" height="48" data-original="#000000" class="active-path" data-old_color="#000000" fill="#53482F"/></g></g> </svg>
