<svg id="Layer_3" enable-background="new 0 0 64 64" height="512" viewBox="0 0 64 64" width="512" xmlns="http://www.w3.org/2000/svg"><g><path d="m43 51 11 11h5l-11-11" fill="#c16b3f"/><path d="m59 51h-16v-1c0-1.657 1.343-3 3-3h13z" fill="#d5cec2"/><path d="m59 47v-12c0-1.105-.895-2-2-2-1.105 0-2 .895-2 2v12" fill="#c16b3f"/><path d="m59 51-11 11h-5l11-11" fill="#e39854"/><path d="m21 51-11 11h-5l11-11" fill="#c16b3f"/><g fill="#d5cec2"><path d="m34 58v-14h-4v14"/><path d="m36 43h8v-4c0-1.105-.895-2-2-2h-20c-1.105 0-2 .895-2 2v4h8"/><path d="m34 37v-12.341c-.626.221-1.299.341-2 .341s-1.374-.12-2-.341v12.341"/></g><path d="m62 19c0 3.314-2.686 6-6 6s-6-2.686-6-6c0 3.314-2.686 6-6 6s-6-2.686-6-6c0 3.314-2.686 6-6 6s-6-2.686-6-6c0 3.314-2.686 6-6 6s-6-2.686-6-6c0 3.314-2.686 6-6 6s-6-2.686-6-6l30-17z" fill="#c16b3f"/><path d="m12.175 17.328c9.975 0 18.715-5.281 23.582-13.199l-3.757-2.129-25.867 14.658c1.945.434 3.965.67 6.042.67z" fill="#e39854"/><path d="m50 19-8.87-11.826-7.092-4.019 3.962 15.845c0 3.314 2.686 6 6 6s6-2.686 6-6z" fill="#d5cec2"/><path d="m14.039 19 8.87-11.826 7.091-4.019-3.961 15.845c0 3.314-2.686 6-6 6s-6-2.686-6-6z" fill="#d5cec2"/><path d="m26 19 4-16 .057.101 1.943-1.101 1.943 1.101.057-.101 4 16c0 3.314-2.686 6-6 6s-6-2.686-6-6z" fill="#c16b3f"/><path d="m34.684 5.736-.684-2.736-.057.101-1.943-1.101-1.943 1.101-.057-.101-2.409 9.636c2.759-1.855 5.16-4.198 7.093-6.9z" fill="#e39854"/><path d="m15.442 17.129c4.479-.527 8.634-2.118 12.195-4.523l2.363-9.451-7.092 4.019z" fill="#e7e4dd"/><path d="m5 51h16v-1c0-1.657-1.343-3-3-3h-13z" fill="#d5cec2"/><path d="m5 47v-12c0-1.105.895-2 2-2 1.105 0 2 .895 2 2v12" fill="#c16b3f"/><path d="m5 51 11 11h5l-11-11" fill="#e39854"/><path d="m23 37 5.683 6.495c.837.956 2.046 1.505 3.317 1.505 1.271 0 2.48-.549 3.317-1.505l5.683-6.495" fill="#c16b3f"/><path d="m26 58h12v4h-12z" fill="#c16b3f"/><path d="m35.726 37h-12.726l5.683 6.495c.212.242.448.457.702.644 3.06-1.286 5.412-3.911 6.341-7.139z" fill="#e39854"/><path d="m26 58v4h5.926c1.77-.908 3.245-2.299 4.262-4z" fill="#e39854"/></g></svg>